<svg
  width="51"
  height="61"
  viewBox="0 0 51 61"
  fill="none"
  xmlns="http://www.w3.org/2000/svg"
>
  <style>
    .light-mode {
      display: block;
    }
    .dark-mode {
      display: none;
    }

    @media (prefers-color-scheme: dark) {
      .light-mode {
        display: none;
      }
      .dark-mode {
        display: block;
      }
    }
  </style>

  <g class="light-mode">
    <path
      d="M0 34.2208V25.8166C0 21.7797 0 19.7613 0.587103 17.9544C1.10657 16.3556 1.95628 14.8839 3.08111 13.6346C4.3524 12.2227 6.10041 11.2135 9.59643 9.1951L15.8941 5.55916C19.3901 3.54074 21.1381 2.53153 22.9965 2.13652C24.6408 1.78701 26.3402 1.78701 27.9845 2.13652C29.8429 2.53153 31.5909 3.54074 35.0869 5.55916L41.3845 9.1951C44.8805 11.2135 46.6285 12.2227 47.8998 13.6346C49.0247 14.8839 49.8744 16.3556 50.3938 17.9544C50.9809 19.7613 50.9809 21.7797 50.9809 25.8166V34.2208C50.9809 38.2576 50.9809 40.276 50.3938 42.083C49.8744 43.6817 49.0247 45.1534 47.8998 46.4027C46.6285 47.8146 44.8805 48.8238 41.3845 50.8422L35.0869 54.4782L35.0868 54.4782C31.5909 56.4966 29.8429 57.5058 27.9845 57.9008C26.3402 58.2503 24.6408 58.2503 22.9965 57.9008C21.1381 57.5058 19.3901 56.4966 15.8941 54.4782L9.59641 50.8422C6.1004 48.8238 4.35239 47.8146 3.08111 46.4027C1.95628 45.1534 1.10657 43.6817 0.587102 42.083C0 40.276 0 38.2576 0 34.2208Z"
      fill="#101010"
    />
    <path
      d="M46.8961 22.7187V40.0237C46.8961 40.6292 46.8961 40.9319 46.808 41.203C46.7301 41.4428 46.6027 41.6635 46.434 41.8509C46.2433 42.0627 45.9811 42.2141 45.4567 42.5168L30.3691 51.2285C30.3691 48.6765 30.7445 46.0949 31.492 43.4869C32.2889 40.688 33.5171 37.8594 35.1734 35.0012C36.7211 32.3306 38.4334 29.996 40.3103 27.9972C42.3157 25.8568 44.5121 24.0984 46.8961 22.7187Z"
      fill="white"
      stroke="white"
      stroke-width="0.164644"
      stroke-linecap="round"
      stroke-linejoin="round"
    />
    <path
      d="M46.896 22.7186C44.5119 24.0984 42.3155 25.8568 40.3102 27.9971C38.4332 29.9959 36.7209 32.3306 35.1732 35.0011C33.5169 37.8593 32.2887 40.6879 31.4918 43.4869C30.7443 46.0949 30.369 48.6765 30.369 51.2285L25.3746 48.7313C24.7982 48.4431 24.51 48.299 24.2906 48.0657C24.1078 47.8714 23.9495 47.5948 23.8745 47.3389C23.7844 47.0315 23.804 46.7403 23.8432 46.1578C24.1614 41.4337 25.7443 36.6165 28.5875 31.7082C31.4786 26.7202 34.9473 22.8982 38.9913 20.2398C39.4211 19.9572 39.636 19.8159 39.9102 19.7406C40.1395 19.6777 40.4206 19.6611 40.6557 19.6966C40.937 19.7392 41.1902 19.8658 41.6967 20.119L46.896 22.7186Z"
      fill="#BDBBB9"
      stroke="white"
      stroke-width="0.164644"
      stroke-linecap="round"
      stroke-linejoin="round"
    />
  </g>

  <g class="dark-mode">
    <path
      d="M0 34.2208V25.8166C0 21.7797 0 19.7613 0.587103 17.9544C1.10657 16.3556 1.95628 14.8839 3.08111 13.6346C4.3524 12.2227 6.10041 11.2135 9.59643 9.1951L15.8941 5.55916C19.3901 3.54074 21.1381 2.53153 22.9965 2.13652C24.6408 1.78701 26.3402 1.78701 27.9845 2.13652C29.8429 2.53153 31.5909 3.54074 35.0869 5.55916L41.3845 9.1951C44.8805 11.2135 46.6285 12.2227 47.8998 13.6346C49.0247 14.8839 49.8744 16.3556 50.3938 17.9544C50.9809 19.7613 50.9809 21.7797 50.9809 25.8166V34.2208C50.9809 38.2576 50.9809 40.276 50.3938 42.083C49.8744 43.6817 49.0247 45.1534 47.8998 46.4027C46.6285 47.8146 44.8805 48.8238 41.3845 50.8422L35.0869 54.4782L35.0868 54.4782C31.5909 56.4966 29.8429 57.5058 27.9845 57.9008C26.3402 58.2503 24.6408 58.2503 22.9965 57.9008C21.1381 57.5058 19.3901 56.4966 15.8941 54.4782L9.59641 50.8422C6.1004 48.8238 4.35239 47.8146 3.08111 46.4027C1.95628 45.1534 1.10657 43.6817 0.587102 42.083C0 40.276 0 38.2576 0 34.2208Z"
      fill="white"
    />
    <path
      d="M46.8961 22.7187V40.0237C46.8961 40.6292 46.8961 40.9319 46.808 41.203C46.7301 41.4428 46.6027 41.6635 46.434 41.8509C46.2433 42.0627 45.9811 42.2141 45.4567 42.5168L30.3691 51.2285C30.3691 48.6765 30.7445 46.0949 31.492 43.4869C32.2889 40.688 33.5171 37.8594 35.1734 35.0012C36.7211 32.3306 38.4334 29.996 40.3103 27.9972C42.3157 25.8568 44.5121 24.0984 46.8961 22.7187Z"
      fill="#1C1C1C"
      stroke="#1C1C1C"
      stroke-width="0.164644"
      stroke-linecap="round"
      stroke-linejoin="round"
    />
    <path
      d="M46.896 22.7186C44.5119 24.0984 42.3155 25.8568 40.3102 27.9971C38.4332 29.9959 36.7209 32.3306 35.1732 35.0011C33.5169 37.8593 32.2887 40.6879 31.4918 43.4869C30.7443 46.0949 30.369 48.6765 30.369 51.2285L25.3746 48.7313C24.7982 48.4431 24.51 48.299 24.2906 48.0657C24.1078 47.8714 23.9495 47.5948 23.8745 47.3389C23.7844 47.0315 23.804 46.7403 23.8432 46.1578C24.1614 41.4337 25.7443 36.6165 28.5875 31.7082C31.4786 26.7202 34.9473 22.8982 38.9913 20.2398C39.4211 19.9572 39.636 19.8159 39.9102 19.7406C40.1395 19.6777 40.4206 19.6611 40.6557 19.6966C40.937 19.7392 41.1902 19.8658 41.6967 20.119L46.896 22.7186Z"
      fill="#474747"
      stroke="#1C1C1C"
      stroke-width="0.164644"
      stroke-linecap="round"
      stroke-linejoin="round"
    />
  </g>
 
</svg>
